<svg xmlns="http://www.w3.org/2000/svg" width="16" height="16" fill="none" viewBox="0 0 16 16"><path fill="url(#paint0_linear)" d="M11.0667 4.73337L10.0667 0.533371H4.73339L0.533386 6.93337L1.73339 9.8667L0.533386 12.6L7.66672 13.8667L12.2667 9.80004L11.0667 4.73337Z"/><path fill="url(#paint1_linear)" d="M2.00005 7.13337L0.533386 6.93336L1.73339 9.8667L0.533386 12.6L3.40005 10.2L2.00005 7.13337Z"/><path fill="url(#paint2_linear)" d="M2.00005 7.13336L0.533386 6.93336L1.73339 9.8667L3.40005 10.2L2.00005 7.13336Z"/><path fill="url(#paint3_linear)" d="M2.00005 7.13337L10.0667 0.533371H4.73339L0.533386 6.93337L2.00005 7.13337Z"/><path fill="url(#paint4_linear)" d="M2.00005 7.13337L10.0667 0.533371H4.73339L0.533386 6.93337L2.00005 7.13337Z"/><path fill="url(#paint5_linear)" d="M2.00005 7.13337L5.80005 4.00004L4.73339 0.533371L0.533386 6.93337L2.00005 7.13337Z"/><path fill="url(#paint6_linear)" d="M2.00005 7.13337L5.80005 4.00004L4.73339 0.533371L0.533386 6.93337L2.00005 7.13337Z"/><path fill="url(#paint7_linear)" d="M13.7334 6.33337L15.5334 10.3334L12.4667 15.5334L10.6 10.9334L13.7334 6.33337Z"/><path fill="url(#paint8_linear)" d="M12.1334 8.73337L15.5334 10.3334L12.4667 15.5334L9.33337 14.3333L12.1334 8.73337Z"/><path fill="url(#paint9_linear)" d="M10.5334 10.9334L12.4001 15.5334L7.66675 13.9334L10.5334 10.9334Z"/><path fill="url(#paint10_linear)" d="M15.4667 3.6667L9.20005 5.20004L0.533386 12.6L6.13339 15.4667L10.5334 10.9334L15.4667 3.6667Z"/><path fill="url(#paint11_linear)" d="M4.20005 12.7334L0.533386 12.6L6.13339 15.4667L7.73339 13.8L4.20005 12.7334Z"/><path fill="url(#paint12_linear)" d="M4.20005 12.7334L0.533386 12.6L3.33339 10.1334L4.20005 12.7334Z"/><path fill="url(#paint13_linear)" d="M15.4667 3.6667L9.20007 5.20004L13.6667 6.40004L15.4667 3.6667Z"/><path fill="url(#paint14_linear)" d="M15.4667 3.6667L9.20007 5.20004L13.4001 6.33337L15.4667 3.6667Z"/><path fill="url(#paint15_linear)" d="M12.0001 8.80003L11.0667 4.73337L9.20008 5.20003L6.66675 7.33337L12.0001 8.80003Z"/><path fill="url(#paint16_linear)" d="M11.3334 5.73337L11.0667 4.73337L9.20007 5.20003L11.3334 5.73337Z"/><path fill="url(#paint17_linear)" d="M3.33337 10.2L10.5334 10.9334L13.7334 6.33337L11.4 6.60004L3.33337 10.2Z"/><path fill="url(#paint18_linear)" d="M15.4667 3.6667L6.13336 15.4667L10.5334 10.9334L15.4667 3.6667Z"/><path fill="url(#paint19_linear)" d="M15.4667 3.6667L6.13336 15.4667L10.5334 10.9334L15.4667 3.6667Z"/><path fill="url(#paint20_linear)" d="M12.6666 3.33333H3.33331V12.6667H12.6666V3.33333Z"/><path fill="#fff" d="M8.66663 10.6667H4.66663V11.3333H8.66663V10.6667Z"/><path fill="#fff" d="M4.33331 6.6666C4.33331 5.53326 5.13331 4.59993 6.26665 4.59993C6.93331 4.59993 7.33331 4.79993 7.73331 5.13326L7.19998 5.79993C6.93331 5.53326 6.66665 5.39993 6.26665 5.39993C5.66665 5.39993 5.19998 5.93326 5.19998 6.6666C5.19998 7.39993 5.66665 7.93326 6.33331 7.93326C6.59998 7.93326 6.86665 7.8666 7.13331 7.6666V7.13326H6.26665V6.33326H7.86665V8.0666C7.46665 8.39993 6.93331 8.73326 6.26665 8.73326C5.13331 8.73326 4.33331 7.8666 4.33331 6.6666Z"/><path fill="#fff" d="M8.33331 6.6666C8.33331 5.53326 9.13331 4.59993 10.2666 4.59993C11.4 4.59993 12.1333 5.53326 12.1333 6.6666C12.1333 7.79993 11.3333 8.73326 10.2 8.73326C9.13331 8.73326 8.33331 7.79993 8.33331 6.6666ZM11.3333 6.6666C11.3333 5.99993 10.8666 5.39993 10.2666 5.39993C9.66665 5.39993 9.19998 5.93326 9.19998 6.6666C9.19998 7.33326 9.66665 7.93326 10.2666 7.93326C10.8666 7.93326 11.3333 7.33326 11.3333 6.6666Z"/><defs><linearGradient id="paint0_linear" x1="7.256" x2="10.817" y1="6.551" y2="2.5" gradientUnits="userSpaceOnUse"><stop stop-color="#087CFA"/><stop offset=".023" stop-color="#0D7BFA"/><stop offset=".373" stop-color="#5566F9"/><stop offset=".663" stop-color="#8A57F8"/><stop offset=".881" stop-color="#AB4EF7"/><stop offset="1" stop-color="#B74AF7"/></linearGradient><linearGradient id="paint1_linear" x1=".495" x2="4.411" y1="9.762" y2="9.592" gradientUnits="userSpaceOnUse"><stop offset=".12" stop-color="#2D58F9"/><stop offset=".946" stop-color="#B74AF7"/></linearGradient><linearGradient id="paint2_linear" x1="1.217" x2="2.65" y1="6.556" y2="10.56" gradientUnits="userSpaceOnUse"><stop offset=".085" stop-color="#086AFA"/><stop offset=".476" stop-color="#087CFA"/><stop offset=".685" stop-color="#466AF9"/><stop offset=".898" stop-color="#8059F8"/><stop offset="1" stop-color="#9653F8"/></linearGradient><linearGradient id="paint3_linear" x1="1.027" x2="9.264" y1="5.712" y2="-1.024" gradientUnits="userSpaceOnUse"><stop stop-color="#087CFA"/><stop offset=".019" stop-color="#0D7BFA"/><stop offset=".311" stop-color="#5566F9"/><stop offset=".554" stop-color="#8A57F8"/><stop offset=".736" stop-color="#AB4EF7"/><stop offset=".835" stop-color="#B74AF7"/><stop offset=".98" stop-color="#DB5CFF"/></linearGradient><linearGradient id="paint4_linear" x1="4.816" x2="6.484" y1="3.338" y2="4.649" gradientUnits="userSpaceOnUse"><stop offset=".523" stop-color="#B74AF7" stop-opacity="0"/><stop offset=".926" stop-color="#D66EFF"/></linearGradient><linearGradient id="paint5_linear" x1=".694" x2="7.438" y1="5.982" y2=".467" gradientUnits="userSpaceOnUse"><stop stop-color="#087CFA"/><stop offset=".016" stop-color="#0D7BFA"/><stop offset=".27" stop-color="#5566F9"/><stop offset=".481" stop-color="#8A57F8"/><stop offset=".638" stop-color="#AB4EF7"/><stop offset=".725" stop-color="#B74AF7"/><stop offset=".953" stop-color="#DB5CFF"/></linearGradient><linearGradient id="paint6_linear" x1="1.211" x2="2.49" y1="7.862" y2="6.085" gradientUnits="userSpaceOnUse"><stop stop-color="#8F99FF"/><stop offset="1" stop-color="#B74AF7" stop-opacity="0"/></linearGradient><linearGradient id="paint7_linear" x1="15.271" x2="9.412" y1="9.045" y2="14.002" gradientUnits="userSpaceOnUse"><stop stop-color="#087CFA"/><stop offset=".023" stop-color="#0D7BFA"/><stop offset=".373" stop-color="#5566F9"/><stop offset=".663" stop-color="#8A57F8"/><stop offset=".881" stop-color="#AB4EF7"/><stop offset="1" stop-color="#B74AF7"/></linearGradient><linearGradient id="paint8_linear" x1="15.096" x2="9.756" y1="11.677" y2="12.485" gradientUnits="userSpaceOnUse"><stop offset=".003" stop-color="#2D58F9"/><stop offset=".813" stop-color="#B74AF7"/></linearGradient><linearGradient id="paint9_linear" x1="12.21" x2="10.118" y1="12.575" y2="14.447" gradientUnits="userSpaceOnUse"><stop stop-color="#C386F7"/><stop offset=".813" stop-color="#B74AF7"/></linearGradient><linearGradient id="paint10_linear" x1="2.584" x2="13.404" y1="13.604" y2="6.651" gradientUnits="userSpaceOnUse"><stop stop-color="#087CFA"/><stop offset=".102" stop-color="#1598D3"/><stop offset=".225" stop-color="#23B6AA"/><stop offset=".345" stop-color="#2DCC8B"/><stop offset=".462" stop-color="#35DD74"/><stop offset=".572" stop-color="#39E767"/><stop offset=".67" stop-color="#3BEA62"/></linearGradient><linearGradient id="paint11_linear" x1="3.196" x2="8.239" y1="14.157" y2="9.181" gradientUnits="userSpaceOnUse"><stop stop-color="#087CFA"/><stop offset=".102" stop-color="#1598D3"/><stop offset=".225" stop-color="#23B6AA"/><stop offset=".345" stop-color="#2DCC8B"/><stop offset=".462" stop-color="#35DD74"/><stop offset=".572" stop-color="#39E767"/><stop offset=".67" stop-color="#3BEA62"/></linearGradient><linearGradient id="paint12_linear" x1="1.971" x2="6.354" y1="13.067" y2="8.743" gradientUnits="userSpaceOnUse"><stop offset=".171" stop-color="#087CFA"/><stop offset=".402" stop-color="#19A1C8"/><stop offset=".68" stop-color="#2BC891"/><stop offset=".887" stop-color="#37E16F"/><stop offset="1" stop-color="#3BEA62"/></linearGradient><linearGradient id="paint13_linear" x1="10.317" x2="14.699" y1="6.826" y2="2.737" gradientUnits="userSpaceOnUse"><stop offset=".493" stop-color="#00FA45"/><stop offset=".868" stop-color="#B5FF91"/></linearGradient><linearGradient id="paint14_linear" x1="11.508" x2="14.105" y1="3.944" y2="5.437" gradientUnits="userSpaceOnUse"><stop offset=".175" stop-color="#00FA45" stop-opacity="0"/><stop offset=".868" stop-color="#A0FF5E"/></linearGradient><linearGradient id="paint15_linear" x1="12.213" x2="9.212" y1="4.992" y2="8.206" gradientUnits="userSpaceOnUse"><stop stop-color="#7165DF"/><stop offset=".068" stop-color="#6475D9"/><stop offset=".235" stop-color="#4897CD"/><stop offset=".32" stop-color="#44B2AA"/><stop offset=".414" stop-color="#40CA8B"/><stop offset=".506" stop-color="#3DDC74"/><stop offset=".593" stop-color="#3CE667"/><stop offset=".67" stop-color="#3BEA62"/></linearGradient><linearGradient id="paint16_linear" x1="11.13" x2="10.157" y1="4.531" y2="5.573" gradientUnits="userSpaceOnUse"><stop offset=".383" stop-color="#59C1DB"/><stop offset=".469" stop-color="#4FCEB4"/><stop offset=".579" stop-color="#4D8"/><stop offset=".664" stop-color="#3EE76C"/><stop offset=".714" stop-color="#3BEA62"/></linearGradient><linearGradient id="paint17_linear" x1="6.268" x2="15.931" y1="7.492" y2="10.685" gradientUnits="userSpaceOnUse"><stop stop-color="#1CA7BE"/><stop offset=".375" stop-color="#2FCF87"/><stop offset=".655" stop-color="#3BEA62"/><stop offset=".857" stop-color="#5FFF58"/></linearGradient><linearGradient id="paint18_linear" x1="5.841" x2="12.865" y1="9.864" y2="9.48" gradientUnits="userSpaceOnUse"><stop offset=".296" stop-color="#1CA7BE"/><stop offset=".343" stop-color="#23B5AA"/><stop offset=".431" stop-color="#2DCC8B"/><stop offset=".517" stop-color="#35DD74"/><stop offset=".598" stop-color="#39E767"/><stop offset=".67" stop-color="#3BEA62"/><stop offset="1" stop-color="#7EEF5A"/></linearGradient><linearGradient id="paint19_linear" x1="13.651" x2="10.99" y1="1.981" y2="9.107" gradientUnits="userSpaceOnUse"><stop offset=".124" stop-color="#1CA563"/><stop offset=".327" stop-color="#29C163" stop-opacity=".747"/><stop offset=".541" stop-color="#33D862" stop-opacity=".48"/><stop offset=".745" stop-color="#39E562" stop-opacity=".226"/><stop offset=".926" stop-color="#3BEA62" stop-opacity="0"/></linearGradient><linearGradient id="paint20_linear" x1="3.37" x2="13.02" y1="3.37" y2="13.02" gradientUnits="userSpaceOnUse"><stop stop-color="#006396"/><stop offset=".034" stop-color="#005682"/><stop offset=".121" stop-color="#003754"/><stop offset=".204" stop-color="#001F2F"/><stop offset=".282" stop-color="#000E15"/><stop offset=".351" stop-color="#000406"/><stop offset=".406"/><stop offset=".914"/></linearGradient></defs></svg>