<svg xmlns="http://www.w3.org/2000/svg" width="16" height="16" fill="none" viewBox="0 0 16 16"><path fill="url(#paint0_linear)" d="M15.4667 4.4667L14.8 10.0667L14.4 12.4667L9.46668 15.5334L3.33334 10.8L10.8 3.00003L15.4667 4.4667Z"/><path fill="url(#paint1_linear)" d="M9.46667 14.2667V14.7334H10L10.1333 14.4667L9.46667 14.2667Z"/><path fill="url(#paint2_linear)" d="M14 12.2L14.8 10.0667L15.2 13.2L14 12.2Z"/><path fill="url(#paint3_linear)" d="M15.4667 4.4667L6.86668 10.4L2.93335 11L10.8 0.733368L15.4667 4.4667Z"/><path fill="url(#paint4_linear)" d="M9.13336 2.93337L10.8 0.733368L10.5334 5.2667L9.13336 2.93337Z"/><path fill="url(#paint5_linear)" d="M2.93335 10.9334L0.666687 9.33338L2.80002 7.20004L9.26669 9.80004L2.93335 10.9334Z"/><path fill="url(#paint6_linear)" d="M6.60004 13.4667L1.73337 15.1334L2.93337 11.6667L8.93337 9.40004L12.2667 11.4L6.60004 13.4667Z"/><path fill="url(#paint7_linear)" d="M5.20002 3.6667L2.66669 0.533371L7.60002 1.0667L8.13335 2.6667L5.20002 3.6667Z"/><path fill="url(#paint8_linear)" d="M14.8 10.0667L7.60001 1.06671L4.93334 1.13338L3.46667 5.46671L12.8 10.6L11.2 12.9334L14.4 12.4667L14.8 10.0667Z"/><path fill="#FFD460" d="M3.40003 5.73337L1.73337 5.6667L2.6667 0.533371L4.93337 1.13337L3.40003 5.73337Z"/><path fill="url(#paint9_linear)" d="M12.8 10.6L8.60002 9.73337L0.533356 6.4667L3.46669 5.53337L12.8 10.6Z"/><path fill="url(#paint10_linear)" d="M4.66667 1.8667L3.46667 5.53337L9.33334 8.73337H9.46667L11.9333 6.93337L4.66667 1.8667Z"/><path fill="url(#paint11_linear)" d="M2.66669 0.533371L0.533356 6.4667L3.26669 5.73337L3.46669 5.53337L4.66669 1.8667L2.66669 0.533371Z"/><path fill="url(#paint12_linear)" d="M1.73337 15.1334L3.53337 7.6667L8.60003 9.73337L1.73337 15.1334Z"/><path fill="url(#paint13_linear)" d="M8.60002 9.73337L5.80002 7.2667L2.00002 6.93336L0.666687 9.33337L3.40002 8.20003H3.46669L1.73335 15.1334L8.60002 9.73337Z"/><path fill="url(#paint14_linear)" d="M12.8 10.6L10.2 14.4667L6.60004 13.5334L8.60004 9.73337L12.8 10.6Z"/><path fill="url(#paint15_linear)" d="M12.8 10.6L8.60002 9.73337L0.533356 6.4667L3.46669 5.53337L12.8 10.6Z"/><path fill="url(#paint16_linear)" d="M3.46669 5.53337L0.533356 6.4667L9.33336 8.73337L3.46669 5.53337Z"/><path fill="url(#paint17_linear)" d="M14.4 12.4667L11.1333 12.9334L9.46667 15.5334L15.2 13.2L14.4 12.4667Z"/><path fill="url(#paint18_linear)" d="M9.4667 15.5334L11.2 12.9334L6.60004 13.5334L9.4667 15.5334Z"/><path fill="url(#paint19_linear)" d="M6.06668 6.93336L9.33335 8.73337L12.1333 6.80003L9.06668 2.93336L6.06668 6.93336Z"/><path fill="url(#paint20_linear)" d="M11.9333 6.93337L8.06668 4.26671L6.06668 6.93337L9.33335 8.73338L11.8 7.06671L11.9333 6.93337Z"/><path fill="url(#paint21_linear)" d="M12.6667 3.33333H3.33334V12.6667H12.6667V3.33333Z"/><g opacity=".3"><g opacity=".3"><path fill="#231F20" d="M12.5 12.6667L12.6667 12.6333V10.6667L11.3 12.6667H12.5Z" opacity=".3"/><path fill="url(#paint22_linear)" d="M9.30001 3.33333H4.26668L3.53334 5.53333L12.2667 10.3L3.56668 5.56666L3.33334 5.63333V7.56666L8.60001 9.66666L12.6667 10.5667V10.5333V7.5L9.30001 3.33333Z" opacity=".3"/><path fill="url(#paint23_linear)" d="M4.26666 3.33333L3.53333 5.53333L12.6667 10.5333V7.49999L9.29999 3.33333H4.26666Z" opacity=".3"/><path fill="#F9ED32" d="M3.33334 3.33333V5.76666L3.56668 5.56666L4.30001 3.33333H3.33334Z" opacity=".3"/></g><path fill="url(#paint24_linear)" d="M3.33334 5.63332V7.56665L8.60001 9.66665L12.6667 10.5667V10.5333L3.56668 5.56665L3.33334 5.63332Z" opacity=".3"/><path fill="url(#paint25_linear)" d="M3.33334 7.16665L9.33334 8.69998L3.56668 5.56665L3.33334 5.63332V7.16665Z" opacity=".3"/><path fill="url(#paint26_linear)" d="M7.00002 12.6667L8.60002 9.66666L4.80002 12.6667H7.00002Z" opacity=".3"/><path fill="#F7941D" d="M3.33334 8.93331L3.50001 8.19998L3.46668 8.23332L3.33334 8.29998V8.93331Z" opacity=".3"/><path fill="url(#paint27_linear)" d="M3.33334 8.29998L3.46668 8.23332L3.50001 8.19998L3.33334 8.93332V12.6666H4.80001L8.60001 9.66665L3.33334 7.56665V8.29998Z" opacity=".3"/><path fill="url(#paint28_linear)" d="M7 12.6667H11.3L12.6667 10.6667V10.5667L8.6 9.66666L7 12.6667Z" opacity=".3"/><g opacity=".3"><path fill="url(#paint29_linear)" d="M12.1 6.79999L12.6667 6.4V3.33333H9.30002L12.1 6.79999Z" opacity=".3"/></g></g><path fill="#fff" d="M8.66666 10.6667H4.66666V11.3333H8.66666V10.6667Z"/><path fill="#fff" d="M6.675 5.39999V4.67082H4.6875V5.39999H5.24583V7.91666H4.6875V8.64583H6.675V7.91666H6.12083V5.39999H6.675Z"/><path fill="#fff" d="M8.58326 8.70416C8.27076 8.70416 8.01243 8.64583 7.8041 8.52916C7.59576 8.41249 7.42076 8.27083 7.28326 8.10833L7.83326 7.49583C7.94576 7.62083 8.06243 7.71666 8.17493 7.78749C8.2916 7.85833 8.4166 7.89166 8.55826 7.89166C8.72493 7.89166 8.8541 7.84166 8.94993 7.73333C9.04576 7.62916 9.0916 7.46249 9.0916 7.22916V4.67082H9.98743V7.27083C9.98743 7.50833 9.9541 7.71666 9.8916 7.89166C9.8291 8.06666 9.73326 8.21249 9.61243 8.33333C9.4916 8.45416 9.3416 8.54583 9.1666 8.60833C8.99576 8.67083 8.79993 8.70416 8.58326 8.70416Z"/><defs><linearGradient id="paint0_linear" x1="9.203" x2="9.837" y1="4.998" y2="12.907" gradientUnits="userSpaceOnUse"><stop offset=".1" stop-color="#087CFA"/><stop offset=".46" stop-color="#079AF6"/><stop offset=".845" stop-color="#07C3F2"/></linearGradient><linearGradient id="paint1_linear" x1="9.825" x2="9.949" y1="14.59" y2="14.77" gradientUnits="userSpaceOnUse"><stop offset=".286" stop-color="#087CFA"/><stop offset="1" stop-color="#079AF6"/></linearGradient><linearGradient id="paint2_linear" x1="14.36" x2="15.755" y1="13.508" y2="9.304" gradientUnits="userSpaceOnUse"><stop offset=".118" stop-color="#27A6F6"/><stop offset=".242" stop-color="#2F99F5"/><stop offset=".92" stop-color="#5753F2"/></linearGradient><linearGradient id="paint3_linear" x1="15.795" x2="7.074" y1="1.356" y2="6.629" gradientUnits="userSpaceOnUse"><stop offset=".286" stop-color="#0AEFFF"/><stop offset=".329" stop-color="#09DEFA"/><stop offset=".397" stop-color="#07CAF4"/><stop offset=".442" stop-color="#07C3F2"/><stop offset=".501" stop-color="#07ACF5"/><stop offset=".575" stop-color="#0897F7"/><stop offset=".657" stop-color="#0888F9"/><stop offset=".753" stop-color="#087FFA"/><stop offset=".898" stop-color="#087CFA"/></linearGradient><linearGradient id="paint4_linear" x1="9.96" x2="9.96" y1=".392" y2="6.176" gradientUnits="userSpaceOnUse"><stop offset=".207" stop-color="#02C5FE"/><stop offset=".317" stop-color="#04ACFD"/><stop offset=".444" stop-color="#0697FB"/><stop offset=".585" stop-color="#0788FB"/><stop offset=".75" stop-color="#087FFA"/><stop offset="1" stop-color="#087CFA"/></linearGradient><linearGradient id="paint5_linear" x1="2.919" x2="4.213" y1="7.669" y2="8.88" gradientUnits="userSpaceOnUse"><stop stop-color="#FF581C"/><stop offset=".192" stop-color="#FF5124"/><stop offset=".495" stop-color="#FE3F3B"/><stop offset=".785" stop-color="#FE2857"/></linearGradient><linearGradient id="paint6_linear" x1="4.595" x2="6.775" y1="10.713" y2="13.061" gradientUnits="userSpaceOnUse"><stop offset=".457" stop-color="#FF149D"/><stop offset=".536" stop-color="#EF1AB2"/><stop offset=".698" stop-color="#C82BE9"/><stop offset=".757" stop-color="#B831FF"/><stop offset=".839" stop-color="#A33AFE"/><stop offset="1" stop-color="#6E51FD"/></linearGradient><linearGradient id="paint7_linear" x1="5.067" x2="5.762" y1=".114" y2="3.153" gradientUnits="userSpaceOnUse"><stop offset=".028" stop-color="#FFDE17"/><stop offset=".276" stop-color="#FDB60D"/><stop offset=".594" stop-color="#FC801D"/><stop offset=".653" stop-color="#FC7A25"/><stop offset=".747" stop-color="#FD6A3C"/><stop offset=".863" stop-color="#FE4F61"/><stop offset=".976" stop-color="#FF318C"/></linearGradient><linearGradient id="paint8_linear" x1="4.567" x2="15.052" y1="3.167" y2="11.49" gradientUnits="userSpaceOnUse"><stop stop-color="#FE2857"/><stop offset=".056" stop-color="#FE255F"/><stop offset=".144" stop-color="#FF1F76"/><stop offset=".228" stop-color="#FF1692"/><stop offset=".289" stop-color="#F11BA7"/><stop offset=".414" stop-color="#CD29DE"/><stop offset=".483" stop-color="#B831FF"/><stop offset=".581" stop-color="#7A4CFD"/><stop offset=".748" stop-color="#087CFA"/><stop offset=".975" stop-color="#07A5F5"/></linearGradient><linearGradient id="paint9_linear" x1="1.652" x2="12.048" y1="5.801" y2="11.21" gradientUnits="userSpaceOnUse"><stop offset=".246" stop-color="#FE2857"/><stop offset=".292" stop-color="#FE265F"/><stop offset=".364" stop-color="#FE1F76"/><stop offset=".453" stop-color="#FF159B"/><stop offset=".457" stop-color="#FF149D"/><stop offset=".536" stop-color="#EF1AB2"/><stop offset=".698" stop-color="#C82BE9"/><stop offset=".757" stop-color="#B831FF"/><stop offset=".811" stop-color="#A33AFE"/><stop offset=".921" stop-color="#6C52FD"/><stop offset="1" stop-color="#4164FC"/></linearGradient><linearGradient id="paint10_linear" x1="3.938" x2="9.808" y1="3.559" y2="7.751" gradientUnits="userSpaceOnUse"><stop offset=".008" stop-color="#FC35E3"/><stop offset=".216" stop-color="#F12CD5"/><stop offset=".41" stop-color="#EB27CD"/><stop offset=".498" stop-color="#DE2ADA"/><stop offset=".778" stop-color="#B831FF"/><stop offset="1" stop-color="#6D51FD"/></linearGradient><linearGradient id="paint11_linear" x1="1.552" x2="3.578" y1="3.449" y2="4.749" gradientUnits="userSpaceOnUse"><stop offset=".043" stop-color="#FFD25F"/><stop offset=".289" stop-color="#FEBC9B"/><stop offset=".617" stop-color="#FC9CF0"/><stop offset="1" stop-color="#FD5ED7"/></linearGradient><linearGradient id="paint12_linear" x1="-.109" x2="9.273" y1="7.262" y2="16.444" gradientUnits="userSpaceOnUse"><stop offset=".023" stop-color="#FC801D"/><stop offset=".247" stop-color="#FC7E20"/><stop offset=".276" stop-color="#FC772A"/><stop offset=".325" stop-color="#FD6444"/><stop offset=".388" stop-color="#FE466E"/><stop offset=".427" stop-color="#FF318C"/><stop offset=".492" stop-color="#EA3896"/><stop offset=".628" stop-color="#B248AE"/><stop offset=".819" stop-color="#5A63D6"/><stop offset=".986" stop-color="#087CFA"/></linearGradient><linearGradient id="paint13_linear" x1="2.191" x2="5.152" y1="7.287" y2="12.404" gradientUnits="userSpaceOnUse"><stop offset=".004" stop-color="#FFDE17"/><stop offset=".053" stop-color="#FECB12"/><stop offset=".109" stop-color="#FDBB0E"/><stop offset=".154" stop-color="#FDB60D"/><stop offset=".235" stop-color="#FDAE0F"/><stop offset=".357" stop-color="#FC9A15"/><stop offset=".472" stop-color="#FC801D"/><stop offset="1" stop-color="#FE4176"/></linearGradient><linearGradient id="paint14_linear" x1="8.358" x2="11.095" y1="9.925" y2="14.286" gradientUnits="userSpaceOnUse"><stop offset=".021" stop-color="#B149AF"/><stop offset=".083" stop-color="#9153BD"/><stop offset=".219" stop-color="#3F6BE2"/><stop offset=".304" stop-color="#087CFA"/><stop offset=".794" stop-color="#07C3F2"/></linearGradient><linearGradient id="paint15_linear" x1="1.652" x2="12.048" y1="5.801" y2="11.21" gradientUnits="userSpaceOnUse"><stop offset=".246" stop-color="#FE2857"/><stop offset=".292" stop-color="#FE265F"/><stop offset=".364" stop-color="#FE1F76"/><stop offset=".453" stop-color="#FF159B"/><stop offset=".457" stop-color="#FF149D"/><stop offset=".536" stop-color="#EF1AB2"/><stop offset=".698" stop-color="#C82BE9"/><stop offset=".757" stop-color="#B831FF"/><stop offset=".811" stop-color="#A33AFE"/><stop offset=".921" stop-color="#6C52FD"/><stop offset="1" stop-color="#4164FC"/></linearGradient><linearGradient id="paint16_linear" x1="2.605" x2="7.401" y1="6.291" y2="8.958" gradientUnits="userSpaceOnUse"><stop offset=".006" stop-color="#FF45ED"/><stop offset=".177" stop-color="#FF35D8"/><stop offset=".335" stop-color="#FF24C0"/><stop offset=".735" stop-color="#EA23CA"/><stop offset="1" stop-color="#D923D1"/></linearGradient><linearGradient id="paint17_linear" x1="13.495" x2="11.924" y1="11.339" y2="15.418" gradientUnits="userSpaceOnUse"><stop offset=".216" stop-color="#07C3F2"/><stop offset=".324" stop-color="#04B1EC"/><stop offset=".458" stop-color="#01A1E7"/><stop offset=".561" stop-color="#009BE5"/><stop offset=".575" stop-color="#0198E7"/><stop offset=".678" stop-color="#058AF1"/><stop offset=".799" stop-color="#0781F7"/><stop offset=".983" stop-color="#087EF9"/></linearGradient><linearGradient id="paint18_linear" x1="6.927" x2="10.524" y1="13.017" y2="14.303" gradientUnits="userSpaceOnUse"><stop offset=".153" stop-color="#087CFA"/><stop offset=".634" stop-color="#009AE5"/><stop offset="1" stop-color="#07C3F2"/></linearGradient><linearGradient id="paint19_linear" x1="9.832" x2="8.714" y1="3.545" y2="8.692" gradientUnits="userSpaceOnUse"><stop stop-color="#FF188D"/><stop offset=".319" stop-color="#D82EC8"/><stop offset=".441" stop-color="#CC30CC"/><stop offset=".663" stop-color="#AC35D7"/><stop offset=".898" stop-color="#833CE5"/></linearGradient><linearGradient id="paint20_linear" x1="7.443" x2="9.623" y1="4.759" y2="7.833" gradientUnits="userSpaceOnUse"><stop stop-color="#FF188D"/><stop offset=".319" stop-color="#D82EC8"/><stop offset=".441" stop-color="#CC30CC"/><stop offset=".663" stop-color="#AC35D7"/><stop offset=".898" stop-color="#833CE5"/></linearGradient><linearGradient id="paint21_linear" x1="3.189" x2="12.744" y1="4.078" y2="11.867" gradientUnits="userSpaceOnUse"><stop stop-color="#521713"/><stop offset=".08" stop-color="#451310"/><stop offset=".299" stop-color="#270B09"/><stop offset=".514" stop-color="#110504"/><stop offset=".722" stop-color="#040101"/><stop offset=".914"/></linearGradient><linearGradient id="paint22_linear" x1="3.333" x2="12.667" y1="6.944" y2="6.944" gradientUnits="userSpaceOnUse"><stop offset=".246" stop-color="#FE2857"/><stop offset=".292" stop-color="#FE265F"/><stop offset=".364" stop-color="#FE1F76"/><stop offset=".453" stop-color="#FF159B"/><stop offset=".457" stop-color="#FF149D"/><stop offset=".536" stop-color="#EF1AB2"/><stop offset=".698" stop-color="#C82BE9"/><stop offset=".757" stop-color="#B831FF"/><stop offset=".811" stop-color="#A33AFE"/><stop offset=".921" stop-color="#6C52FD"/><stop offset="1" stop-color="#4164FC"/></linearGradient><linearGradient id="paint23_linear" x1="3.524" x2="12.667" y1="6.934" y2="6.934" gradientUnits="userSpaceOnUse"><stop offset=".112" stop-color="#F7941D"/><stop offset=".137" stop-color="#F88C25"/><stop offset=".178" stop-color="#F9753A"/><stop offset=".228" stop-color="#FB505D"/><stop offset=".286" stop-color="#FF1C8C"/><stop offset=".293" stop-color="#FF1692"/><stop offset=".403" stop-color="#EA1A93"/><stop offset=".468" stop-color="#DB1D93"/><stop offset=".554" stop-color="#9F2895"/><stop offset=".723" stop-color="#21409A"/><stop offset=".867" stop-color="#222F5C"/><stop offset="1" stop-color="#231F20"/></linearGradient><linearGradient id="paint24_linear" x1="3.333" x2="12.667" y1="8.056" y2="8.056" gradientUnits="userSpaceOnUse"><stop offset=".088" stop-color="#FE2857"/><stop offset=".128" stop-color="#FE265F"/><stop offset=".192" stop-color="#FE1F76"/><stop offset=".272" stop-color="#FF159B"/><stop offset=".275" stop-color="#FF149D"/><stop offset=".417" stop-color="#B21871"/><stop offset=".543" stop-color="#741B4E"/><stop offset=".649" stop-color="#481D35"/><stop offset=".731" stop-color="#2D1E26"/><stop offset=".779" stop-color="#231F20"/></linearGradient><linearGradient id="paint25_linear" x1="4.237" x2="7.892" y1="6.772" y2="8.805" gradientUnits="userSpaceOnUse"><stop offset=".006" stop-color="#FF45ED"/><stop offset=".177" stop-color="#FF35D8"/><stop offset=".335" stop-color="#FF24C0"/><stop offset=".451" stop-color="#EA24B0"/><stop offset=".692" stop-color="#B22388"/><stop offset="1" stop-color="#63214F"/></linearGradient><linearGradient id="paint26_linear" x1="4.799" x2="8.602" y1="11.173" y2="11.173" gradientUnits="userSpaceOnUse"><stop offset=".457" stop-color="#FF149D"/><stop offset=".536" stop-color="#EF1AB2"/><stop offset=".698" stop-color="#C82BE9"/><stop offset=".757" stop-color="#B831FF"/><stop offset=".839" stop-color="#A33AFE"/><stop offset="1" stop-color="#6E51FD"/></linearGradient><linearGradient id="paint27_linear" x1="3.333" x2="8.602" y1="10.113" y2="10.113" gradientUnits="userSpaceOnUse"><stop offset=".004" stop-color="#FFDE17"/><stop offset=".039" stop-color="#FECB12"/><stop offset=".079" stop-color="#FDBB0E"/><stop offset=".111" stop-color="#FDB60D"/><stop offset=".167" stop-color="#FDAE0F"/><stop offset=".252" stop-color="#FC9A15"/><stop offset=".332" stop-color="#FC801D"/><stop offset=".737" stop-color="#BE1E2D"/></linearGradient><linearGradient id="paint28_linear" x1="7.01" x2="12.667" y1="11.173" y2="11.173" gradientUnits="userSpaceOnUse"><stop stop-color="#087CFA"/><stop offset=".794" stop-color="#231F20"/></linearGradient><linearGradient id="paint29_linear" x1="16.475" x2="10.528" y1="12.219" y2="2.587" gradientUnits="userSpaceOnUse"><stop offset=".349" stop-color="#3595F3"/><stop offset=".402" stop-color="#3490EB"/><stop offset=".486" stop-color="#3284D4"/><stop offset=".592" stop-color="#2F6FAE"/><stop offset=".714" stop-color="#2B527B"/><stop offset=".848" stop-color="#252D39"/><stop offset=".895" stop-color="#231F20"/></linearGradient></defs></svg>