<svg xmlns="http://www.w3.org/2000/svg" width="16" height="16" fill="none" viewBox="0 0 16 16"><path fill="url(#paint0_linear)" d="M9.1333 3.13332L8.26664 1.59999L5.9333 2.73332L2.86664 2.99999L3.3333 8.26666L7.66664 7.53332L9.1333 3.13332Z"/><path fill="url(#paint1_linear)" d="M4.66666 4.46666L0.533325 3.39999L1.93333 12L9.19999 12.4L4.66666 4.46666Z"/><path fill="url(#paint2_linear)" d="M6.66668 7.93332L1.93335 12L9.20002 12.4L6.66668 7.93332Z"/><path fill="url(#paint3_linear)" d="M9.19999 12.3333L8.53333 5.06665L10.4667 3.33332L13.5333 2.06665L15.4667 6.93332L9.19999 12.3333Z"/><path fill="url(#paint4_linear)" d="M9.19999 12.3333L8.53333 5.06665L11.4667 6.13332L15.4667 6.93332L9.19999 12.3333Z"/><path fill="url(#paint5_linear)" d="M12.6666 6.86665L11.7333 4.86665L4.06665 6.39999L4.86665 13.7333L9.86665 15.4667L15.4666 12.1333L12.6666 6.86665Z"/><path fill="url(#paint6_linear)" d="M12.6667 6.86665L11.7333 4.93332L8.73334 7.26665L9.86667 15.5333L15.4667 12.1333L12.6667 6.86665Z"/><path fill="url(#paint7_linear)" d="M8.73334 7.19999V7.33332L9.4 12.1333L13.6 8.59999L12.6667 6.86665L11.7333 4.93332L8.73334 7.19999Z"/><path fill="url(#paint8_linear)" d="M5.06665 6.2L9.19998 12.4L12.5333 9.46666L10.2 5.2L5.06665 6.2Z"/><path fill="url(#paint9_linear)" d="M8.73332 7.26666L4.06665 6.39999L4.86665 13.7333L9.86665 15.4667L8.73332 7.26666Z"/><path fill="url(#paint10_linear)" d="M9.39998 12.2L8.73332 7.26666L4.06665 6.39999L4.33332 8.99999L9.19998 12.4L9.39998 12.2Z"/><path fill="url(#paint11_linear)" d="M9.39996 12.2L8.86663 8.2L7.39996 9.26666L9.1333 12.4H9.19996L9.39996 12.2Z"/><path fill="url(#paint12_linear)" d="M5.99998 6.73333L4.06665 6.39999L4.66665 12.1333L9.19998 12.4L5.99998 6.73333Z"/><path fill="url(#paint13_linear)" d="M7 12.2667L9.2 12.4L7.33333 9.2L7 12.2667Z"/><path fill="url(#paint14_linear)" d="M8.73332 7.26666L4.06665 6.39999L9.73332 1.39999L13.5333 2.06666L11 4.66666L11.7333 4.93333L8.73332 7.26666Z"/><path fill="url(#paint15_linear)" d="M9.13332 3.13333L8.66665 2.33333L4.06665 6.4L8.73332 7.26666L10.6 5.79999L9.13332 3.13333Z"/><path fill="url(#paint16_linear)" d="M8.26666 1.59999L3.06666 0.46666L0.533325 3.39999L4.66666 4.46666L8.26666 1.59999Z"/><path fill="url(#paint17_linear)" d="M5.06666 4.13333L3.06666 0.46666L0.533325 3.39999L4.66666 4.46666L5.06666 4.13333Z"/><path fill="url(#paint18_linear)" d="M6.9333 12.2667L4.86664 13.7333L9.86664 15.4667L9.39997 12.2L9.19997 12.4L6.9333 12.2667Z"/><path fill="url(#paint19_linear)" d="M15.4667 12.1333L12.5333 9.46666L11 4.66666L11.7333 4.93332L15.4667 12.1333Z"/><path fill="url(#paint20_linear)" d="M11.2 5.33332L11.7333 4.93332L11 4.66666L11.2 5.33332Z"/><path fill="url(#paint21_linear)" d="M11 6.59999L8.86664 8.19999L9.39997 12.2L12.5333 9.46666L11 6.59999Z"/><path fill="url(#paint22_linear)" d="M12.6666 3.33333H3.33331V12.6667H12.6666V3.33333Z"/><path fill="#fff" d="M8.66663 10.6667H4.66663V11.3333H8.66663V10.6667Z"/><path fill="#fff" d="M8.13324 8.06667L8.66657 7.46667C8.99991 7.73334 9.39991 7.93334 9.86657 7.93334C10.1999 7.93334 10.4666 7.80001 10.4666 7.53334C10.4666 7.33334 10.3332 7.20001 9.66657 7.00001C8.86657 6.80001 8.33324 6.60001 8.33324 5.80001C8.33324 5.06667 8.93324 4.60001 9.73324 4.60001C10.3332 4.60001 10.7999 4.80001 11.1999 5.13334L10.7332 5.80001C10.3999 5.53334 9.99991 5.40001 9.66657 5.40001C9.33324 5.40001 9.13324 5.53334 9.13324 5.73334C9.13324 6.00001 9.33324 6.06667 9.99991 6.26667C10.8666 6.46667 11.3332 6.80001 11.3332 7.46667C11.3332 8.26667 10.7332 8.73334 9.86657 8.73334C9.26657 8.73334 8.66657 8.53334 8.13324 8.06667Z"/><path fill="#fff" d="M4.66663 4.66666H6.26663C7.19996 4.66666 7.73329 5.19999 7.73329 6.06666C7.73329 6.99999 6.99996 7.46666 6.13329 7.46666H5.46663V8.66666H4.66663V4.66666ZM6.19996 6.66666C6.59996 6.66666 6.86663 6.39999 6.86663 6.06666C6.86663 5.66666 6.59996 5.46666 6.19996 5.46666H5.53329V6.66666H6.19996Z"/><defs><linearGradient id="paint0_linear" x1="3.266" x2="7.501" y1="9.149" y2="1.015" gradientUnits="userSpaceOnUse"><stop stop-color="#AF1DF5"/><stop offset=".212" stop-color="#BC20E4"/><stop offset=".628" stop-color="#DD29B8"/><stop offset="1" stop-color="#FF318C"/></linearGradient><linearGradient id="paint1_linear" x1="2.03" x2="7.164" y1="11.622" y2="4.84" gradientUnits="userSpaceOnUse"><stop offset=".121" stop-color="#6B57FF"/><stop offset=".401" stop-color="#B74AF7"/><stop offset=".709" stop-color="#FF318C"/><stop offset=".865" stop-color="#FF7FB8"/></linearGradient><linearGradient id="paint2_linear" x1="2.777" x2="6.717" y1="13.748" y2="11.021" gradientUnits="userSpaceOnUse"><stop offset=".089" stop-color="#6B57FF"/><stop offset=".402" stop-color="#8253FD"/><stop offset=".458" stop-color="#8A52FC"/><stop offset=".705" stop-color="#AB4CF8"/><stop offset=".841" stop-color="#B74AF7"/></linearGradient><linearGradient id="paint3_linear" x1="13.072" x2="9.782" y1="11.278" y2="3.469" gradientUnits="userSpaceOnUse"><stop stop-color="#4335BE"/><stop offset=".131" stop-color="#5638C7"/><stop offset=".532" stop-color="#8A42E1"/><stop offset=".834" stop-color="#AB48F1"/><stop offset="1" stop-color="#B74AF7"/></linearGradient><linearGradient id="paint4_linear" x1="13.011" x2="10.084" y1="11.242" y2="4.296" gradientUnits="userSpaceOnUse"><stop stop-color="#4335BE"/><stop offset=".242" stop-color="#663BCF"/><stop offset=".741" stop-color="#B74AF7"/></linearGradient><linearGradient id="paint5_linear" x1="11.334" x2="6.605" y1="13.791" y2="6.859" gradientUnits="userSpaceOnUse"><stop offset=".016" stop-color="#6B57FF"/><stop offset=".783" stop-color="#B74AF7"/></linearGradient><linearGradient id="paint6_linear" x1="12.8" x2="9.377" y1="13.122" y2="8.105" gradientUnits="userSpaceOnUse"><stop offset=".016" stop-color="#6B57FF"/><stop offset=".783" stop-color="#B74AF7"/></linearGradient><linearGradient id="paint7_linear" x1="17.828" x2="7.14" y1="11.932" y2="6.929" gradientUnits="userSpaceOnUse"><stop stop-color="#4335BE"/><stop offset=".242" stop-color="#663BCF"/><stop offset=".741" stop-color="#B74AF7"/></linearGradient><linearGradient id="paint8_linear" x1="11.869" x2="7.229" y1="13.669" y2="4.809" gradientUnits="userSpaceOnUse"><stop offset=".016" stop-color="#6B57FF"/><stop offset=".783" stop-color="#B74AF7"/></linearGradient><linearGradient id="paint9_linear" x1="9.57" x2="5.005" y1="14.568" y2="7.875" gradientUnits="userSpaceOnUse"><stop offset=".016" stop-color="#6B57FF"/><stop offset=".691" stop-color="#B74AF7"/></linearGradient><linearGradient id="paint10_linear" x1="5.799" x2="8.063" y1="11.128" y2="6.78" gradientUnits="userSpaceOnUse"><stop offset=".016" stop-color="#6B57FF"/><stop offset=".697" stop-color="#A329F5"/></linearGradient><linearGradient id="paint11_linear" x1="6.988" x2="9.444" y1="6.464" y2="11.285" gradientUnits="userSpaceOnUse"><stop offset=".016" stop-color="#6B57FF"/><stop offset=".697" stop-color="#A329F5"/></linearGradient><linearGradient id="paint12_linear" x1="4.075" x2="8.022" y1="13.951" y2="6.927" gradientUnits="userSpaceOnUse"><stop offset=".024" stop-color="#6B57FF"/><stop offset=".263" stop-color="#6B57FF"/><stop offset=".706" stop-color="#B74AF7"/><stop offset=".766" stop-color="#BC48F0"/><stop offset=".856" stop-color="#CA44DB"/><stop offset=".963" stop-color="#E03CBA"/><stop offset="1" stop-color="#E939AD"/></linearGradient><linearGradient id="paint13_linear" x1="6.82" x2="8.739" y1="13.36" y2="9.946" gradientUnits="userSpaceOnUse"><stop offset=".046" stop-color="#6B57FF"/><stop offset=".295" stop-color="#8A52FC"/><stop offset=".599" stop-color="#AB4CF8"/><stop offset=".767" stop-color="#B74AF7"/></linearGradient><linearGradient id="paint14_linear" x1="9.901" x2="8.334" y1="10.07" y2="1.784" gradientUnits="userSpaceOnUse"><stop offset=".016" stop-color="#6B57FF"/><stop offset=".567" stop-color="#B74AF7"/><stop offset=".906" stop-color="#C276FF"/></linearGradient><linearGradient id="paint15_linear" x1="6.252" x2="9.221" y1="8.184" y2="2.483" gradientUnits="userSpaceOnUse"><stop offset=".016" stop-color="#6B57FF"/><stop offset=".597" stop-color="#B74AF7"/></linearGradient><linearGradient id="paint16_linear" x1="2.207" x2="5.02" y1="6.473" y2="1.367" gradientUnits="userSpaceOnUse"><stop offset=".087" stop-color="#AF1DF5"/><stop offset=".233" stop-color="#BC20E4"/><stop offset=".519" stop-color="#DD29B8"/><stop offset=".775" stop-color="#FF318C"/><stop offset=".997" stop-color="#FF64B9"/></linearGradient><linearGradient id="paint17_linear" x1="1.772" x2="3.507" y1="5.615" y2="2.467" gradientUnits="userSpaceOnUse"><stop offset=".009" stop-color="#BC20E4"/><stop offset=".444" stop-color="#D827C0"/><stop offset="1" stop-color="#FF318C"/></linearGradient><linearGradient id="paint18_linear" x1="5.733" x2="9.846" y1="14.752" y2="13.44" gradientUnits="userSpaceOnUse"><stop offset=".016" stop-color="#6B57FF"/><stop offset=".691" stop-color="#B74AF7"/><stop offset=".977" stop-color="#BD6CF7"/></linearGradient><linearGradient id="paint19_linear" x1="13.917" x2="12.319" y1="8.164" y2="8.752" gradientUnits="userSpaceOnUse"><stop offset=".075" stop-color="#6B57FF"/><stop offset=".74" stop-color="#B74AF7"/></linearGradient><linearGradient id="paint20_linear" x1="11.195" x2="11.391" y1="6.025" y2="4.623" gradientUnits="userSpaceOnUse"><stop stop-color="#B74AF7"/><stop offset="1" stop-color="#C276FF"/></linearGradient><linearGradient id="paint21_linear" x1="11.841" x2="9.177" y1="12.466" y2="7.381" gradientUnits="userSpaceOnUse"><stop offset=".016" stop-color="#6B57FF"/><stop offset=".783" stop-color="#B74AF7"/></linearGradient><linearGradient id="paint22_linear" x1="3.58" x2="11.587" y1="3.137" y2="11.947" gradientUnits="userSpaceOnUse"><stop stop-color="#562274"/><stop offset=".594" stop-color="#020202"/></linearGradient></defs></svg>