<svg xmlns="http://www.w3.org/2000/svg" width="16" height="16" fill="none" viewBox="0 0 16 16"><path fill="url(#paint0_linear)" d="M7.20003 8.86666L5.73337 9.73333L5.6667 11.2667L3.53337 12.2L0.866699 12.4L1.40003 2.79999L6.93337 0.533325L12.8667 5.93332L7.20003 8.86666Z"/><path fill="url(#paint1_linear)" d="M10.6667 3.06667L15.4 6.2L13.8 9.73333L11.2 9H8.8667L10.6667 3.06667Z"/><path fill="url(#paint2_linear)" d="M8.13335 11.6L4.20001 2.39999L6.93335 0.533325L15.4 6.19999L8.13335 11.6Z"/><path fill="url(#paint3_linear)" d="M1.40002 2.79999L6.93336 0.533325L4.20002 2.39999L1.40002 2.79999Z"/><path fill="url(#paint4_linear)" d="M1.40002 2.79999L6.93336 0.533325L4.20002 2.39999L0.533356 12.5333L1.40002 2.79999Z"/><path fill="#21D789" d="M6.13336 5.46666L8.53336 13.3333L5.66669 15.4667L0.533356 12.5333L1.86669 8.73333L6.00002 4.46666L6.13336 5.46666Z"/><path fill="url(#paint5_linear)" d="M5.06669 11.6L0.533356 12.5333L5.66669 15.4667L8.53336 13.3333L5.06669 11.6Z"/><path fill="url(#paint6_linear)" d="M5.06669 11.6L0.533356 12.5333L1.86669 8.73333L6.00002 4.46666L5.06669 11.6Z"/><path fill="url(#paint7_linear)" d="M6.33335 11.2667L8.53335 13.3333L5.66669 15.4667L6.33335 11.2667Z"/><path fill="url(#paint8_linear)" d="M15.4667 13.9333L10.9334 15.4667L4.80002 13.7333L6.00002 4.46666L11.6667 0.533325L12.2 4.66666L10.6667 7.99999L13.6 6.86666L14.2 9.13333L15.4667 13.9333Z"/><path fill="url(#paint9_linear)" d="M15.4667 13.9333L10.9333 15.4667L13.6 6.86665L15.4667 13.9333Z"/><path fill="url(#paint10_linear)" d="M11.6667 0.533325L9.53335 5.26666L7.80002 8.99999L10.6667 7.99999L12.2667 4.59999L11.6667 0.533325Z"/><path fill="url(#paint11_linear)" d="M1.40002 2.79999L6.93336 0.533325L4.20002 2.39999L1.40002 2.79999Z"/><path fill="url(#paint12_linear)" d="M15.4667 13.9333L10.9334 15.4667L4.80002 13.7333L8.53335 13.4L15.4667 13.9333Z"/><path fill="url(#paint13_linear)" d="M11.5333 13.6L10.9333 15.4667L15.4667 13.9333L11.5333 13.6Z"/><path fill="url(#paint14_linear)" d="M12.6667 3.33333H3.33334V12.6667H12.6667V3.33333Z"/><path fill="#fff" d="M8.00003 6.66664C8.00003 5.53331 8.8667 4.59998 10.0667 4.59998C10.8 4.59998 11.2667 4.86664 11.6667 5.19998L11.1334 5.86664C10.8 5.59998 10.4667 5.39998 10.0667 5.39998C9.40003 5.39998 8.93336 5.93331 8.93336 6.66664C8.93336 7.33331 9.40003 7.93331 10.0667 7.93331C10.5334 7.93331 10.8 7.73331 11.1334 7.46664L11.6667 7.99998C11.2667 8.46664 10.8 8.73331 10.0667 8.73331C8.8667 8.73331 8.00003 7.79998 8.00003 6.66664Z"/><path fill="#fff" d="M4.66669 4.66663H6.26669C7.20002 4.66663 7.73335 5.19996 7.73335 6.06663C7.73335 6.99996 7.00002 7.46663 6.13335 7.46663H5.46669V8.66663H4.66669V4.66663ZM6.20002 6.66663C6.60002 6.66663 6.86669 6.39996 6.86669 6.06663C6.86669 5.66663 6.60002 5.46663 6.20002 5.46663H5.53335V6.66663H6.20002Z"/><path fill="#fff" d="M8.66669 10.6667H4.66669V11.3333H8.66669V10.6667Z"/><defs><linearGradient id="paint0_linear" x1="-4.44" x2="13.687" y1="12.934" y2="-.448" gradientUnits="userSpaceOnUse"><stop offset=".011" stop-color="#FCF84A"/><stop offset=".112" stop-color="#A7EB62"/><stop offset=".206" stop-color="#5FE077"/><stop offset=".273" stop-color="#32DA84"/><stop offset=".306" stop-color="#21D789"/><stop offset=".577" stop-color="#21D789"/><stop offset=".597" stop-color="#21D789"/><stop offset=".686" stop-color="#20D68C"/><stop offset=".763" stop-color="#1ED497"/><stop offset=".835" stop-color="#19D1A9"/><stop offset=".904" stop-color="#13CCC2"/><stop offset=".971" stop-color="#0BC6E1"/><stop offset="1" stop-color="#07C3F2"/></linearGradient><linearGradient id="paint1_linear" x1="11.108" x2="13.296" y1="4.325" y2="11.242" gradientUnits="userSpaceOnUse"><stop stop-color="#009AE5"/><stop offset="1" stop-color="#07C3F2"/></linearGradient><linearGradient id="paint2_linear" x1="2.391" x2="13.808" y1="3.719" y2="8.887" gradientUnits="userSpaceOnUse"><stop offset=".034" stop-color="#10E899"/><stop offset=".174" stop-color="#13E596"/><stop offset=".295" stop-color="#1EDA8C"/><stop offset=".319" stop-color="#21D789"/><stop offset=".398" stop-color="#20D68C"/><stop offset=".465" stop-color="#1ED497"/><stop offset=".529" stop-color="#19D1A9"/><stop offset=".59" stop-color="#13CCC2"/><stop offset=".649" stop-color="#0BC6E1"/><stop offset=".675" stop-color="#07C3F2"/><stop offset=".921" stop-color="#07EBFF"/></linearGradient><linearGradient id="paint3_linear" x1="4.811" x2="3.81" y1="2.611" y2="1.117" gradientUnits="userSpaceOnUse"><stop stop-color="#07C3F2"/><stop offset=".195" stop-color="#0BC6E2"/><stop offset=".575" stop-color="#15CEB8"/><stop offset=".946" stop-color="#21D789"/></linearGradient><linearGradient id="paint4_linear" x1="-1.153" x2="4.685" y1="4.071" y2="6.99" gradientUnits="userSpaceOnUse"><stop offset=".03" stop-color="#C1EF5B"/><stop offset=".249" stop-color="#9DEA65"/><stop offset=".732" stop-color="#41DC80"/><stop offset=".896" stop-color="#21D789"/></linearGradient><linearGradient id="paint5_linear" x1="6.255" x2="2.897" y1="8.706" y2="16.886" gradientUnits="userSpaceOnUse"><stop offset=".103" stop-color="#087CFA"/><stop offset=".227" stop-color="#0C89EA" stop-opacity=".806"/><stop offset=".472" stop-color="#15ABC0" stop-opacity=".427"/><stop offset=".747" stop-color="#21D789" stop-opacity="0"/></linearGradient><linearGradient id="paint6_linear" x1="3.139" x2="3.333" y1="4.105" y2="12.503" gradientUnits="userSpaceOnUse"><stop offset=".011" stop-color="#FCF84A"/><stop offset=".092" stop-color="#ECF64F"/><stop offset=".253" stop-color="#C1EF5B"/><stop offset=".475" stop-color="#7DE56F"/><stop offset=".747" stop-color="#21D789"/></linearGradient><linearGradient id="paint7_linear" x1="5.644" x2="8.529" y1="13.387" y2="13.387" gradientUnits="userSpaceOnUse"><stop stop-color="#13A5C7"/><stop offset="1" stop-color="#21D789"/></linearGradient><linearGradient id="paint8_linear" x1="18.579" x2="3.189" y1="14.528" y2="3.508" gradientUnits="userSpaceOnUse"><stop offset=".473" stop-color="#FCF84A"/><stop offset=".532" stop-color="#ECF74C"/><stop offset=".647" stop-color="#C1F451"/><stop offset=".806" stop-color="#7EEF5A"/><stop offset=".949" stop-color="#3BEA62"/></linearGradient><linearGradient id="paint9_linear" x1="18.167" x2="5.884" y1="10.155" y2="12.239" gradientUnits="userSpaceOnUse"><stop offset=".276" stop-color="#FCF84A"/><stop offset=".365" stop-color="#ECF74C"/><stop offset=".54" stop-color="#C1F451"/><stop offset=".782" stop-color="#7EEF5A"/><stop offset="1" stop-color="#3BEA62"/></linearGradient><linearGradient id="paint10_linear" x1="13.373" x2="8.731" y1="9.804" y2="3.359" gradientUnits="userSpaceOnUse"><stop offset=".122" stop-color="#FCF84A"/><stop offset=".202" stop-color="#F3F74B"/><stop offset=".335" stop-color="#DAF350"/><stop offset=".504" stop-color="#B1ED56"/><stop offset=".703" stop-color="#78E55F"/><stop offset=".924" stop-color="#30DB6B"/><stop offset="1" stop-color="#16D76F"/></linearGradient><linearGradient id="paint11_linear" x1="1.803" x2="5.983" y1="1.414" y2="1.834" gradientUnits="userSpaceOnUse"><stop stop-color="#FCF84A"/><stop offset=".164" stop-color="#D8F957"/><stop offset=".529" stop-color="#7BFC79"/><stop offset=".986" stop-color="#00FFA6"/></linearGradient><linearGradient id="paint12_linear" x1="15.246" x2="3.634" y1="13.364" y2="15.335" gradientUnits="userSpaceOnUse"><stop offset=".09" stop-color="#3BEA62"/><stop offset=".168" stop-color="#67ED5C"/><stop offset=".25" stop-color="#8FF058"/><stop offset=".338" stop-color="#B1F353"/><stop offset=".432" stop-color="#CCF550"/><stop offset=".533" stop-color="#E1F64D"/><stop offset=".645" stop-color="#F0F74B"/><stop offset=".776" stop-color="#F9F84A"/><stop offset=".974" stop-color="#FCF84A"/></linearGradient><linearGradient id="paint13_linear" x1="12.027" x2="14.426" y1="13.083" y2="16.348" gradientUnits="userSpaceOnUse"><stop stop-color="#3BEA62"/><stop offset=".088" stop-color="#67ED5C"/><stop offset=".181" stop-color="#8FF058"/><stop offset=".281" stop-color="#B1F353"/><stop offset=".387" stop-color="#CCF550"/><stop offset=".501" stop-color="#E1F64D"/><stop offset=".627" stop-color="#F0F74B"/><stop offset=".776" stop-color="#F9F84A"/><stop offset="1" stop-color="#FCF84A"/></linearGradient><linearGradient id="paint14_linear" x1="3.18" x2="12.753" y1="4.07" y2="11.875" gradientUnits="userSpaceOnUse"><stop stop-color="#1D510B"/><stop offset=".536"/></linearGradient></defs></svg>