<svg xmlns="http://www.w3.org/2000/svg" width="16" height="16" fill="none" viewBox="0 0 16 16"><path fill="url(#paint0_linear)" d="M2.53339 14.0667L0.533386 2.0667L4.26672 0.533371L6.60005 1.93337L8.80005 0.733371L13.4001 2.53337L10.8001 15.4667L2.53339 14.0667Z"/><path fill="url(#paint1_linear)" d="M8.80004 0.733368L6.60004 1.93337L7.2667 6.80003L8.60004 7.73337L9.00004 10.6L10.5334 10.7334L9.40004 5.4667L8.80004 0.733368Z"/><path fill="url(#paint2_linear)" d="M7.26672 7.33337L6.60006 1.93337L4.26672 0.533371L5.26672 6.33337L5.60006 9.93337L7.66672 9.8667L7.46672 8.93337L7.26672 7.33337Z"/><path fill="url(#paint3_linear)" d="M2.53339 14.0667L0.533386 2.0667L4.26672 0.533371L5.26672 6.53337L2.53339 14.0667Z"/><path fill="url(#paint4_linear)" d="M5.26672 6.53337L4.26672 0.533371L0.533386 2.0667L4.66672 5.6667L5.26672 6.53337Z"/><path fill="url(#paint5_linear)" d="M2.53339 14.0667L0.533386 2.06671L4.66672 5.66671L8.80005 11.2L2.53339 14.0667Z"/><path fill="url(#paint6_linear)" d="M2.53339 14.0667L6.06672 11.4667L10.8001 15.4667L2.53339 14.0667Z"/><path fill="url(#paint7_linear)" d="M7.73338 10.8667L6.06671 12.4L10.8 15.4667L11.6667 11.3334L7.73338 10.8667Z"/><path fill="url(#paint8_linear)" d="M2.53339 14.0667L6.06672 12.4L10.8001 15.4667L2.53339 14.0667Z"/><path fill="url(#paint9_linear)" d="M15.4667 5.60004L13.5334 0.800038L10.0667 0.533371L4.60004 5.73337L6.00004 12.4L8.93337 14.2667L15.4667 10.3334L13.8667 7.2667L15.4667 5.60004Z"/><path fill="url(#paint10_linear)" d="M10.4667 5.33337L10.0667 0.533371L4.60004 5.73337L8.6667 6.93337L10.4667 5.33337Z"/><path fill="url(#paint11_linear)" d="M9.53337 1.00003L4.60004 5.73336L8.6667 6.93336L10.8 9.2667L10.1334 1.2667L9.53337 1.00003Z"/><path fill="url(#paint12_linear)" d="M8.6667 6.93337L9.53337 6.13337L9.40003 5.4667L8.93337 1.60004L6.8667 3.60004L7.20003 6.53337L8.6667 6.93337Z"/><path fill="url(#paint13_linear)" d="M7.20005 6.53337L6.80004 3.60004L5.06671 5.2667L5.13338 5.8667L7.20005 6.53337Z"/><path fill="url(#paint14_linear)" d="M9.53337 1.00003L4.60004 5.73336L10.1334 1.2667L9.53337 1.00003Z"/><path fill="url(#paint15_linear)" d="M9.00003 2.13337L8.93337 1.60004L6.8667 3.60004V3.8667L9.00003 2.13337Z"/><path fill="url(#paint16_linear)" d="M6.86671 3.8667L6.80004 3.60004L5.06671 5.2667V5.33337L6.86671 3.8667Z"/><path fill="url(#paint17_linear)" d="M12.0001 3.93336L8.66675 6.93336L8.93341 14.2667L15.4667 10.3334L13.8667 7.2667L12.0001 3.93336Z"/><path fill="url(#paint18_linear)" d="M10.4667 5.73337L10.8001 9.53337L15.4667 10.3334L13.8667 7.2667L12.8667 5.53337L10.4667 5.73337Z"/><path fill="url(#paint19_linear)" d="M10.4667 5.73337L10.8001 9.53337L11.5334 9.6667L13.8667 7.2667L12.8667 5.53337L10.4667 5.73337Z"/><path fill="url(#paint20_linear)" d="M8.6667 6.93337L4.60004 5.73337L6.00004 12.4L8.93337 14.2667L8.6667 6.93337Z"/><path fill="url(#paint21_linear)" d="M7.33336 7.33337L7.20003 6.53337L5.13336 5.8667L5.2667 6.33337L5.93336 11.5334L6.00003 12L8.13336 13.6667L7.33336 7.33337Z"/><path fill="url(#paint22_linear)" d="M6.00006 12.4L8.93339 14.2667L8.80006 10.6667L6.00006 12.4Z"/><path fill="url(#paint23_linear)" d="M12 3.93337L13.8667 7.2667L15.4667 5.60003L13.5334 0.800034L11.1334 3.80003L12 3.93337Z"/><path fill="url(#paint24_linear)" d="M12.9334 5.60004L13.8667 7.2667L15.4667 5.60004H12.9334Z"/><path fill="url(#paint25_linear)" d="M4.60004 5.73337L4.93337 7.2667L4.60004 5.73337Z"/><path fill="url(#paint26_linear)" d="M12.6666 3.33333H3.33331V12.6667H12.6666V3.33333Z"/><path fill="#fff" d="M8.66663 10.6667H4.66663V11.3333H8.66663V10.6667Z"/><path fill="#fff" d="M8.79993 8.06667L9.33326 7.46667C9.66659 7.73334 10.0666 7.93334 10.5333 7.93334C10.8666 7.93334 11.1333 7.80001 11.1333 7.53334C11.1333 7.33334 10.9999 7.20001 10.3333 7.00001C9.53326 6.80001 8.99993 6.60001 8.99993 5.80001C8.99993 5.06667 9.59993 4.60001 10.3999 4.60001C10.9999 4.60001 11.4666 4.80001 11.8666 5.13334L11.3999 5.80001C11.0666 5.53334 10.6666 5.40001 10.3333 5.40001C9.99993 5.40001 9.79993 5.53334 9.79993 5.73334C9.79993 6.00001 9.99993 6.06667 10.6666 6.26667C11.5333 6.46667 11.9999 6.80001 11.9999 7.46667C11.9999 8.26667 11.3999 8.73334 10.5333 8.73334C9.93326 8.73334 9.33326 8.53334 8.79993 8.06667Z"/><path fill="#fff" d="M5.86671 8.66673L6.53338 6.3334L7.13338 8.66673H7.86671L9.00004 4.66673H8.06671L7.53338 7.00007L6.86671 4.66673H6.20004L5.53338 7.00007L4.93338 4.66673H4.06671L5.13338 8.66673H5.86671Z"/><defs><linearGradient id="paint0_linear" x1="5.872" x2="9.754" y1=".813" y2="14.787" gradientUnits="userSpaceOnUse"><stop offset=".285" stop-color="#07C3F2"/><stop offset=".941" stop-color="#087CFA"/></linearGradient><linearGradient id="paint1_linear" x1="7.161" x2="9.183" y1=".018" y2="8.723" gradientUnits="userSpaceOnUse"><stop offset=".067" stop-color="#42FFFA"/><stop offset=".341" stop-color="#07C3F2"/><stop offset=".941" stop-color="#087CFA"/></linearGradient><linearGradient id="paint2_linear" x1="3.761" x2="6.933" y1=".039" y2="8.002" gradientUnits="userSpaceOnUse"><stop offset=".285" stop-color="#07C3F2"/><stop offset=".941" stop-color="#087CFA"/></linearGradient><linearGradient id="paint3_linear" x1="1.363" x2="4.79" y1="-.908" y2="13.012" gradientUnits="userSpaceOnUse"><stop offset=".067" stop-color="#42FFFA"/><stop offset=".341" stop-color="#07C3F2"/><stop offset=".941" stop-color="#087CFA"/></linearGradient><linearGradient id="paint4_linear" x1="2.622" x2="3.653" y1="4.566" y2="3.501" gradientUnits="userSpaceOnUse"><stop offset=".01" stop-color="#42FFFA"/><stop offset=".922" stop-color="#07C3F2" stop-opacity="0"/></linearGradient><linearGradient id="paint5_linear" x1="-3.247" x2="6.884" y1="5.006" y2="11.519" gradientUnits="userSpaceOnUse"><stop offset=".199" stop-color="#07C3F2"/><stop offset=".94" stop-color="#087CFA"/></linearGradient><linearGradient id="paint6_linear" x1=".549" x2="6.381" y1="13.264" y2="13.434" gradientUnits="userSpaceOnUse"><stop offset=".129" stop-color="#1D53B8"/><stop offset=".87" stop-color="#087CFA"/></linearGradient><linearGradient id="paint7_linear" x1="8.59" x2="9.853" y1="10.889" y2="15.439" gradientUnits="userSpaceOnUse"><stop offset=".277" stop-color="#087BFA"/><stop offset=".683" stop-color="#085DFA"/></linearGradient><linearGradient id="paint8_linear" x1="5.84" x2="6.734" y1="8.072" y2="15.309" gradientUnits="userSpaceOnUse"><stop offset=".523" stop-color="#087BFA"/><stop offset=".977" stop-color="#086DFA"/></linearGradient><linearGradient id="paint9_linear" x1="7.058" x2="13.625" y1="2.603" y2="12.232" gradientUnits="userSpaceOnUse"><stop offset=".129" stop-color="#FCF84A"/><stop offset=".499" stop-color="#07C3F2"/></linearGradient><linearGradient id="paint10_linear" x1="9.945" x2="9.303" y1=".438" y2="1.795" gradientUnits="userSpaceOnUse"><stop stop-color="#73A4AA"/><stop offset=".675" stop-color="#FCF84A"/></linearGradient><linearGradient id="paint11_linear" x1="6.609" x2="8.903" y1="-1.713" y2="13.882" gradientUnits="userSpaceOnUse"><stop offset=".179" stop-color="#FCF84A"/><stop offset=".859" stop-color="#07C3F2"/></linearGradient><linearGradient id="paint12_linear" x1="7.443" x2="9.194" y1="1.36" y2="8.898" gradientUnits="userSpaceOnUse"><stop offset=".179" stop-color="#FCF84A"/><stop offset=".973" stop-color="#12C6EC"/></linearGradient><linearGradient id="paint13_linear" x1="5.582" x2="7.011" y1="3.889" y2="6.863" gradientUnits="userSpaceOnUse"><stop offset=".129" stop-color="#FCF84A"/><stop offset=".941" stop-color="#07C3F2"/></linearGradient><linearGradient id="paint14_linear" x1="6.852" x2="7.929" y1="-.07" y2="7.249" gradientUnits="userSpaceOnUse"><stop offset=".179" stop-color="#FCF84A"/><stop offset=".859" stop-color="#07C3F2"/></linearGradient><linearGradient id="paint15_linear" x1="7.656" x2="8.247" y1="1.69" y2="4.237" gradientUnits="userSpaceOnUse"><stop offset=".179" stop-color="#D3FF8C"/><stop offset=".876" stop-color="#12C6EC"/></linearGradient><linearGradient id="paint16_linear" x1="5.734" x2="6.149" y1="4.036" y2="4.9" gradientUnits="userSpaceOnUse"><stop offset=".129" stop-color="#FCF84A"/><stop offset=".941" stop-color="#07C3F2"/></linearGradient><linearGradient id="paint17_linear" x1="8.553" x2="12.827" y1="6.305" y2="12.572" gradientUnits="userSpaceOnUse"><stop stop-color="#07C3F2"/><stop offset=".906" stop-color="#00A0FF"/></linearGradient><linearGradient id="paint18_linear" x1="14.751" x2="9.387" y1="7.82" y2="8.501" gradientUnits="userSpaceOnUse"><stop stop-color="#07C3F2"/><stop offset="1" stop-color="#0895F7"/></linearGradient><linearGradient id="paint19_linear" x1="13.56" x2="9.646" y1="7.376" y2="7.873" gradientUnits="userSpaceOnUse"><stop stop-color="#07C3F2"/><stop offset="1" stop-color="#0895F7"/></linearGradient><linearGradient id="paint20_linear" x1="4.02" x2="9.575" y1="4.84" y2="12.986" gradientUnits="userSpaceOnUse"><stop offset=".081" stop-color="#FCF84A"/><stop offset=".571" stop-color="#07C3F2"/></linearGradient><linearGradient id="paint21_linear" x1="4.652" x2="8.901" y1="5.194" y2="14.038" gradientUnits="userSpaceOnUse"><stop offset=".129" stop-color="#FCF84A"/><stop offset=".422" stop-color="#07C3F2"/></linearGradient><linearGradient id="paint22_linear" x1="5.879" x2="9.492" y1="10.501" y2="12.947" gradientUnits="userSpaceOnUse"><stop offset=".093" stop-color="#087CFA"/><stop offset=".658" stop-color="#07C3F2"/></linearGradient><linearGradient id="paint23_linear" x1="12.219" x2="14.073" y1=".81" y2="7.375" gradientUnits="userSpaceOnUse"><stop stop-color="#FCF84A"/><stop offset=".465" stop-color="#07C3F2"/><stop offset=".941" stop-color="#087CFA"/></linearGradient><linearGradient id="paint24_linear" x1="16.225" x2="10.733" y1="6.012" y2="6.821" gradientUnits="userSpaceOnUse"><stop stop-color="#0863FA"/><stop offset=".941" stop-color="#1AC8FB"/></linearGradient><linearGradient id="paint25_linear" x1="4.38" x2="5.244" y1="5.888" y2="7.155" gradientUnits="userSpaceOnUse"><stop offset=".129" stop-color="#FCF84A"/><stop offset=".422" stop-color="#07C3F2"/></linearGradient><linearGradient id="paint26_linear" x1="3.099" x2="11.268" y1="2.909" y2="11.394" gradientUnits="userSpaceOnUse"><stop stop-color="#006396"/><stop offset=".047" stop-color="#005682"/><stop offset=".168" stop-color="#003754"/><stop offset=".283" stop-color="#001F2F"/><stop offset=".391" stop-color="#000E15"/><stop offset=".487" stop-color="#000406"/><stop offset=".562"/><stop offset=".914"/></linearGradient></defs></svg>