<svg xmlns="http://www.w3.org/2000/svg" width="64" height="64" fill="none" viewBox="0 0 64 64"><path fill="url(#paint0_linear)" d="M64.0001 24.9L19.1001 0L49.2001 44.6L55.3001 40.6L64.0001 24.9Z"/><path fill="url(#paint1_linear)" d="M64.0001 24.8999L51.2001 25.5999L49.1001 44.4999L55.3001 40.5999L64.0001 24.8999Z"/><path fill="url(#paint2_linear)" d="M40.5 1L28 13.2L33.1 57.7L45.2 64L64 53L40.5 1Z"/><path fill="url(#paint3_linear)" d="M44.5 14.0999L33.4 7.8999L28 13.1999L36.8 26.1999L48.1 25.6999L44.5 14.0999Z"/><path fill="url(#paint4_linear)" d="M33.1 57.7L54.9 47.5L64 53L54.9 47.5L40.5 1L28 13.2L33.1 57.7Z"/><path fill="url(#paint5_linear)" d="M48.1001 25.7002L29.6001 26.6002L30.0001 30.7002L49.1001 44.5002L53.1001 41.9002L48.1001 25.7002Z"/><path fill="url(#paint6_linear)" d="M40.5 1L54.9 47.5L64 53L40.5 1Z"/><path fill="url(#paint7_linear)" d="M53.0999 41.9001L55.2999 40.6001L56.9999 37.6001L51.5999 25.6001H51.1999L50.3999 33.0001L53.0999 41.9001Z"/><path fill="url(#paint8_linear)" d="M54.9001 47.5L33.1001 57.7L45.2001 64L64.0001 53L54.9001 47.5Z"/><path fill="url(#paint9_linear)" d="M33.1001 57.6998L45.2001 63.9998L41.4001 53.7998L33.1001 57.6998Z"/><path fill="url(#paint10_linear)" d="M19.1 0L0 12.9L7.1 56.8L25.5 63.9L49.2 44.6L19.1 0Z"/><path fill="url(#paint11_linear)" d="M19.1 0L0 12.9L13.1 14.7L19.1 0Z"/><path fill="url(#paint12_linear)" d="M19.1 0L0 12.9L13.1 14.7L19.1 0Z"/><path fill="url(#paint13_linear)" d="M17.5 26.5999L0 12.8999L13.1 14.6999L17.5 26.5999Z"/><path fill="url(#paint14_linear)" d="M24.7001 45.4001L7.1001 56.8001L25.5001 63.9001L49.2001 44.6001L24.7001 45.4001Z"/><path fill="url(#paint15_linear)" d="M24.7001 45.4L13.1001 14.7L19.1001 0L49.2001 44.6L24.7001 45.4Z"/><path fill="url(#paint16_linear)" d="M19.5001 24L19.1001 0L27.9001 13.2L19.5001 24Z"/><path fill="url(#paint17_linear)" d="M33.1 57.7002L49.2001 44.6002L28 13.2002L6.80005 34.7002L33.1 57.7002Z"/><path fill="url(#paint18_linear)" d="M21.6001 47.6001L7.1001 56.8001L25.5001 63.9001L33.1001 57.7001L21.6001 47.6001Z"/><path fill="url(#paint19_linear)" d="M52 12H12V52H52V12Z"/><g opacity=".3"><path fill="url(#paint20_linear)" d="M49.2001 44.6L52 42.7V18.2L40.9 12H27.3L49.2001 44.6Z" opacity=".3"/><path fill="url(#paint21_linear)" d="M12 52H40L49.2 44.6L27.3 12H12V52Z" opacity=".3"/><path fill="url(#paint22_linear)" d="M21.6001 47.5L14.6001 52H26.7001L21.6001 47.5Z" opacity=".3"/><path fill="url(#paint23_linear)" d="M12 39.1L26.7 52H52V26.4L45.5 12H29.2L28 13.2L12 29.3V39.1Z" opacity=".3"/><path fill="url(#paint24_linear)" d="M43.8999 12L51.9999 38.2V26.4L45.4999 12H43.8999Z" opacity=".3"/></g><path fill="#fff" d="M32 44.4502H17V46.9502H32V44.4502Z"/><path fill="#fff" d="M17 16.8999H24.0371C25.9748 16.8999 27.5046 17.4098 28.5245 18.4297C29.3404 19.2456 29.8503 20.4694 29.8503 21.8973C29.8503 24.3449 28.5245 25.9767 26.5868 26.6906L30.2583 32.2999H26.2808L23.0172 27.4045H20.3656V32.2999H17V16.8999ZM23.7311 24.4469C25.3629 24.4469 26.2808 23.529 26.2808 22.3052C26.2808 20.8774 25.2609 20.1635 23.6291 20.1635H20.3656V24.4469H23.7311Z"/><path fill="#fff" d="M32.604 16.8999H38.6212C43.4146 16.8999 46.7802 20.1635 46.7802 24.5489C46.7802 28.8324 43.4146 32.1979 38.6212 32.1979H32.604V16.8999V16.8999ZM35.9696 19.9595V29.2403H38.6212C41.3749 29.2403 43.2106 27.4045 43.2106 24.6509C43.2106 21.8973 41.3749 20.0615 38.6212 20.0615H35.9696V19.9595Z"/><defs><linearGradient id="paint0_linear" x1="59.886" x2="10.553" y1="36.664" y2="8.354" gradientUnits="userSpaceOnUse"><stop offset="0" stop-color="#DD1265"/><stop offset=".483" stop-color="#DD1265"/><stop offset=".942" stop-color="#FDB60D"/></linearGradient><linearGradient id="paint1_linear" x1="58.564" x2="48.008" y1="35.839" y2="29.781" gradientUnits="userSpaceOnUse"><stop offset="0" stop-color="#DD1265"/><stop offset=".942" stop-color="#A7004D"/></linearGradient><linearGradient id="paint2_linear" x1="30.552" x2="50.107" y1="5.588" y2="59.588" gradientUnits="userSpaceOnUse"><stop offset=".139" stop-color="#087CFA"/><stop offset=".476" stop-color="#DD1265"/><stop offset=".958" stop-color="#0855FA"/></linearGradient><linearGradient id="paint3_linear" x1="46.438" x2="39.627" y1="8.75" y2="17.468" gradientUnits="userSpaceOnUse"><stop offset=".297" stop-color="#DD1265" stop-opacity=".96"/><stop offset="1" stop-color="#FF318C" stop-opacity="0"/></linearGradient><linearGradient id="paint4_linear" x1="55.657" x2="46.758" y1="25.057" y2="30.143" gradientUnits="userSpaceOnUse"><stop offset=".049" stop-color="#46DBFF" stop-opacity=".96"/><stop offset=".297" stop-color="#008DFF" stop-opacity=".96"/><stop offset=".603" stop-color="#447DFF" stop-opacity=".253"/><stop offset=".713" stop-color="#5D77FF" stop-opacity="0"/></linearGradient><linearGradient id="paint5_linear" x1="48.428" x2="41.594" y1="18.511" y2="33.725" gradientUnits="userSpaceOnUse"><stop offset="0" stop-color="#0855FA"/><stop offset=".942" stop-color="#DD1265" stop-opacity="0"/></linearGradient><linearGradient id="paint6_linear" x1="41.763" x2="60.057" y1="1.465" y2="51.982" gradientUnits="userSpaceOnUse"><stop offset=".007" stop-color="#0861FA"/><stop offset=".372" stop-color="#5E51BE"/><stop offset="1" stop-color="#B72580"/></linearGradient><linearGradient id="paint7_linear" x1="60.701" x2="46.905" y1="36.037" y2="32.298" gradientUnits="userSpaceOnUse"><stop offset="0" stop-color="#DD1265"/><stop offset=".942" stop-color="#A7004D" stop-opacity="0"/></linearGradient><linearGradient id="paint8_linear" x1="31.902" x2="59.418" y1="48.685" y2="59.446" gradientUnits="userSpaceOnUse"><stop offset=".329" stop-color="#083DFA"/><stop offset=".856" stop-color="#0062FC"/></linearGradient><linearGradient id="paint9_linear" x1="45.563" x2="33.686" y1="55.728" y2="65.19" gradientUnits="userSpaceOnUse"><stop offset=".219" stop-color="#0855FA"/><stop offset="1" stop-color="#07A3F4"/></linearGradient><linearGradient id="paint10_linear" x1="-6.706" x2="26.123" y1="10.24" y2="40.344" gradientUnits="userSpaceOnUse"><stop offset=".278" stop-color="#DD1265"/><stop offset=".968" stop-color="#FDB60D"/></linearGradient><linearGradient id="paint11_linear" x1="8.352" x2="13.05" y1="1.933" y2="19.384" gradientUnits="userSpaceOnUse"><stop offset=".23" stop-color="#DD1265"/><stop offset=".812" stop-color="#F3802A"/></linearGradient><linearGradient id="paint12_linear" x1="8.186" x2="9.957" y1="22.042" y2="2.018" gradientUnits="userSpaceOnUse"><stop offset=".297" stop-color="#FFA149" stop-opacity=".96"/><stop offset=".596" stop-color="#EF5D56" stop-opacity=".489"/><stop offset=".906" stop-color="#DD1265" stop-opacity="0"/></linearGradient><linearGradient id="paint13_linear" x1="27.093" x2="-3.284" y1="15.303" y2="22.659" gradientUnits="userSpaceOnUse"><stop offset=".254" stop-color="#F3A309"/><stop offset=".854" stop-color="#DD1265"/></linearGradient><linearGradient id="paint14_linear" x1="25.605" x2="31.276" y1="41.729" y2="61.882" gradientUnits="userSpaceOnUse"><stop offset="0" stop-color="#DD1265"/><stop offset=".709" stop-color="#FDB60D"/><stop offset=".997" stop-color="#FDD800"/></linearGradient><linearGradient id="paint15_linear" x1="10.405" x2="49.909" y1="17.597" y2="35.169" gradientUnits="userSpaceOnUse"><stop offset=".278" stop-color="#DD1265"/><stop offset=".968" stop-color="#FDB60D"/></linearGradient><linearGradient id="paint16_linear" x1="14.481" x2="26.089" y1="9.861" y2="15.024" gradientUnits="userSpaceOnUse"><stop offset=".004" stop-color="#FC4B57"/><stop offset=".96" stop-color="#FC801D" stop-opacity="0"/></linearGradient><linearGradient id="paint17_linear" x1="32.883" x2="26.48" y1="8.557" y2="49.15" gradientUnits="userSpaceOnUse"><stop offset=".026" stop-color="#6B57FF" stop-opacity=".6"/><stop offset=".37" stop-color="#DD1265"/><stop offset=".96" stop-color="#DD1265" stop-opacity="0"/></linearGradient><linearGradient id="paint18_linear" x1="37.925" x2="18.871" y1="58.657" y2="54.812" gradientUnits="userSpaceOnUse"><stop offset=".004" stop-color="#F26522"/><stop offset=".96" stop-color="#FF45ED" stop-opacity="0"/></linearGradient><linearGradient id="paint19_linear" x1="11.345" x2="49.061" y1="11.345" y2="49.061" gradientUnits="userSpaceOnUse"><stop offset=".028" stop-color="#5A1F3A"/><stop offset=".08" stop-color="#4E1B32"/><stop offset=".277" stop-color="#260D18"/><stop offset=".38" stop-color="#16080E"/><stop offset=".391" stop-color="#15080E"/><stop offset=".683" stop-color="#060204"/><stop offset=".914"/></linearGradient><linearGradient id="paint20_linear" x1="57.77" x2="22.657" y1="35.48" y2="15.331" gradientUnits="userSpaceOnUse"><stop offset="0" stop-color="#DD1265"/><stop offset=".483" stop-color="#DD1265"/><stop offset=".942" stop-color="#FDB60D"/></linearGradient><linearGradient id="paint21_linear" x1="31.027" x2="25.628" y1="51.969" y2="6.883" gradientUnits="userSpaceOnUse"><stop offset=".278" stop-color="#79123A"/><stop offset="1" stop-color="#FA4D6C"/></linearGradient><linearGradient id="paint22_linear" x1="16.027" x2="24.256" y1="47.184" y2="55.755" gradientUnits="userSpaceOnUse"><stop offset=".278" stop-color="#DD1265"/><stop offset=".968" stop-color="#FDB60D"/></linearGradient><linearGradient id="paint23_linear" x1="26.869" x2="35.611" y1="15.959" y2="44.588" gradientUnits="userSpaceOnUse"><stop offset=".137" stop-color="#0AF"/><stop offset=".349" stop-color="#0778BB"/><stop offset=".713" stop-color="#141E3E"/></linearGradient><linearGradient id="paint24_linear" x1="44.71" x2="53.504" y1="12.15" y2="36.432" gradientUnits="userSpaceOnUse"><stop offset=".007" stop-color="#08396C"/><stop offset="1" stop-color="#B72580"/></linearGradient></defs></svg>