<svg xmlns="http://www.w3.org/2000/svg" width="16" height="16" fill="none" viewBox="0 0 16 16"><path fill="url(#paint0_linear)" d="M13 0.533325L8.66669 2.06666L5.33336 0.533325L3.40002 5.06666L3.46669 11.6L13.8667 11.6667L15.4667 3.39999L13 0.533325Z"/><path fill="url(#paint1_linear)" d="M3.33337 10.2667L14.4667 3.86666L13 0.533325L8.66671 2.06666L5.33337 0.533325L3.33337 4.93333V10.2667Z"/><path fill="url(#paint2_linear)" d="M3.33337 10.2667L14.4667 3.86666L13 0.533325L8.66671 2.06666L3.33337 10.2667Z"/><path fill="url(#paint3_linear)" d="M15.4667 3.39999L13.0001 0.533325L8.66675 2.06666L15.4667 3.39999Z"/><path fill="url(#paint4_linear)" d="M14.4667 3.86666L13.8667 11.6667L15.4667 3.39999L14.4667 3.86666Z"/><path fill="url(#paint5_linear)" d="M13.0001 0.533325L14.4667 3.86666L15.4667 3.39999L13.0001 0.533325Z"/><path fill="url(#paint6_linear)" d="M11.9334 5.33332L6.00006 1.79999L12.4667 9.93332L11.9334 5.33332Z"/><path fill="url(#paint7_linear)" d="M12.3334 14.3333L11.4667 12.6667L12.4667 9.93332L6.00005 1.79999L0.533386 3.13332V11L3.66672 15.4667L12.3334 14.3333Z"/><path fill="url(#paint8_linear)" d="M4.93339 11.6L0.533386 3.13333V11L3.66672 15.4667L4.93339 11.6Z"/><path fill="url(#paint9_linear)" d="M4.93339 11.6L5.60005 9.73332L0.533386 11L3.66672 15.4667L4.93339 11.6Z"/><path fill="url(#paint10_linear)" d="M4.93339 11.6L0.533386 3.13333V11L3.66672 15.4667L4.93339 11.6Z"/><path fill="url(#paint11_linear)" d="M4.93341 11.6667L3.66675 15.4667L12.3334 14.3333L4.93341 11.6667Z"/><path fill="url(#paint12_linear)" d="M4.93341 11.6667L11.4667 12.6667L12.3334 14.3333L4.93341 11.6667Z"/><path fill="url(#paint13_linear)" d="M3.66675 15.4667L11.4667 12.6667L12.3334 14.3333L3.66675 15.4667Z"/><path fill="url(#paint14_linear)" d="M12.3334 14.3333L11.4667 12.6667L9.60004 13.3333L12.3334 14.3333Z"/><path fill="url(#paint15_linear)" d="M6.00006 1.79999L2.7334 7.39999L4.9334 11.6L11.8667 11.6667L12.4667 9.93332L6.00006 1.79999Z"/><path fill="url(#paint16_linear)" d="M4.93341 11.6667L11.4667 12.6667L12.4667 9.93332L4.93341 11.6667Z"/><path fill="url(#paint17_linear)" d="M0.533386 3.13333V11V11.0667L2.73339 7.4L0.533386 3.13333Z"/><path fill="url(#paint18_linear)" d="M6.00005 1.79999L0.533386 3.13332L2.73339 7.39999L6.00005 1.79999Z"/><path fill="url(#paint19_linear)" d="M4.53336 2.19999L2.40002 6.86665L2.73336 7.39999L6.00002 1.79999L4.53336 2.19999Z"/><path fill="url(#paint20_linear)" d="M3.33337 6.39999V8.46666L4.00004 9.86666L9.73337 6.53332L6.00004 1.79999L3.33337 6.39999Z"/><path fill="url(#paint21_linear)" d="M12.6666 3.33333H3.33331V12.6667H12.6666V3.33333Z"/><path fill="#fff" d="M8.1333 4.66666H8.99997L9.9333 6.40251L10.8 4.66666H11.6666V8.66666H10.8666V6.10062L9.9333 7.761H9.86663L8.9333 6.10062V8.66666H8.1333V4.66666Z"/><path fill="#fff" d="M4.66663 4.66666H6.26663C6.73329 4.66666 7.06663 4.8176 7.26663 5.04402C7.53329 5.3459 7.59996 5.64779 7.59996 6.02515C7.59996 6.32703 7.53329 6.62892 7.39996 6.77986C7.26663 7.00628 7.06663 7.15722 6.86663 7.23269L7.73329 8.66666H6.79996L6.06663 7.45911H5.39996V8.66666H4.66663V4.66666ZM6.26663 6.62892C6.46663 6.62892 6.59996 6.55345 6.73329 6.47798C6.79996 6.40251 6.86663 6.25156 6.86663 6.10062C6.86663 5.8742 6.79996 5.72326 6.66663 5.64779C6.59996 5.49685 6.39996 5.49685 6.19996 5.49685H5.46663V6.62892H6.26663Z"/><path fill="#fff" d="M8.66663 10.6667H4.66663V11.3333H8.66663V10.6667Z"/><defs><linearGradient id="paint0_linear" x1="10.117" x2="8.221" y1="9.176" y2="4.2" gradientUnits="userSpaceOnUse"><stop stop-color="#FE2857"/><stop offset=".056" stop-color="#FE3052"/><stop offset=".325" stop-color="#FD533B"/><stop offset=".58" stop-color="#FC6C2A"/><stop offset=".811" stop-color="#FC7B20"/><stop offset="1" stop-color="#FC801D"/></linearGradient><linearGradient id="paint1_linear" x1="8.874" x2="8.772" y1="6.899" y2="1.234" gradientUnits="userSpaceOnUse"><stop offset=".374" stop-color="#FEB51A"/><stop offset=".431" stop-color="#FEAD1A"/><stop offset=".645" stop-color="#FD941C"/><stop offset=".841" stop-color="#FC851D"/><stop offset="1" stop-color="#FC801D"/></linearGradient><linearGradient id="paint2_linear" x1="13.219" x2="6.168" y1="10.118" y2="3.518" gradientUnits="userSpaceOnUse"><stop offset=".374" stop-color="#FEB51A"/><stop offset=".417" stop-color="#FEAD1A"/><stop offset=".58" stop-color="#FD941C"/><stop offset=".729" stop-color="#FC851D"/><stop offset=".851" stop-color="#FC801D"/><stop offset=".984" stop-color="#F26522"/></linearGradient><linearGradient id="paint3_linear" x1="10.916" x2="12.158" y1=".539" y2="2.911" gradientUnits="userSpaceOnUse"><stop offset=".024" stop-color="#FDB60D"/><stop offset="1" stop-color="#FF9600" stop-opacity="0"/></linearGradient><linearGradient id="paint4_linear" x1="14.981" x2="14.408" y1="11.471" y2="3.726" gradientUnits="userSpaceOnUse"><stop offset=".013" stop-color="#EE2A7B"/><stop offset=".716" stop-color="#FE2857"/><stop offset=".986" stop-color="#FC801D"/></linearGradient><linearGradient id="paint5_linear" x1="16.748" x2="12.831" y1="6.003" y2=".851" gradientUnits="userSpaceOnUse"><stop stop-color="#FE2857"/><stop offset=".174" stop-color="#FE2C54"/><stop offset=".198" stop-color="#FE3051"/><stop offset=".427" stop-color="#FD533B"/><stop offset=".643" stop-color="#FC6C2A"/><stop offset=".84" stop-color="#FC7B20"/><stop offset="1" stop-color="#FC801D"/></linearGradient><linearGradient id="paint6_linear" x1="6.797" x2="12.733" y1="1.504" y2="8.254" gradientUnits="userSpaceOnUse"><stop stop-color="#6B57FF"/><stop offset="1" stop-color="#FE2857"/></linearGradient><linearGradient id="paint7_linear" x1=".434" x2="10.076" y1="3.006" y2="15.262" gradientUnits="userSpaceOnUse"><stop offset=".042" stop-color="#7D11EF"/><stop offset=".116" stop-color="#A019CB"/><stop offset=".202" stop-color="#C220A8"/><stop offset=".283" stop-color="#DA268F"/><stop offset=".357" stop-color="#E92980"/><stop offset=".417" stop-color="#EE2A7B"/><stop offset="1" stop-color="#F26522"/></linearGradient><linearGradient id="paint8_linear" x1="-1.593" x2="5.372" y1="4.657" y2="13.512" gradientUnits="userSpaceOnUse"><stop offset=".001" stop-color="#6B57FF"/><stop offset=".248" stop-color="#FE2857"/><stop offset=".685" stop-color="#FE2857"/></linearGradient><linearGradient id="paint9_linear" x1="3.122" x2="2.965" y1="7.985" y2="14.477" gradientUnits="userSpaceOnUse"><stop offset=".001" stop-color="#FDB60D"/><stop offset=".725" stop-color="#FE2857" stop-opacity="0"/></linearGradient><linearGradient id="paint10_linear" x1="4.327" x2="2.133" y1="8.216" y2="9.302" gradientUnits="userSpaceOnUse"><stop offset=".024" stop-color="#FF7100"/><stop offset="1" stop-color="#FF9600" stop-opacity="0"/></linearGradient><linearGradient id="paint11_linear" x1="6.204" x2="8.437" y1="9.376" y2="16.262" gradientUnits="userSpaceOnUse"><stop offset=".336" stop-color="#FE2857"/><stop offset=".353" stop-color="#FE3052"/><stop offset=".432" stop-color="#FD533B"/><stop offset=".507" stop-color="#FC6C2A"/><stop offset=".576" stop-color="#FC7B20"/><stop offset=".631" stop-color="#FC801D"/><stop offset=".996" stop-color="#FFDE17"/></linearGradient><linearGradient id="paint12_linear" x1="7.091" x2="9.759" y1="8.22" y2="16.445" gradientUnits="userSpaceOnUse"><stop offset=".221" stop-color="#EE2A7B"/><stop offset=".699" stop-color="#F7941D"/></linearGradient><linearGradient id="paint13_linear" x1="7.374" x2="8.391" y1="12.984" y2="16.12" gradientUnits="userSpaceOnUse"><stop offset=".093" stop-color="#F15A29"/><stop offset=".389" stop-color="#FC801D"/><stop offset="1" stop-color="#FEC519"/></linearGradient><linearGradient id="paint14_linear" x1="6.851" x2="12.737" y1="14.545" y2="13.36" gradientUnits="userSpaceOnUse"><stop offset=".093" stop-color="#F15A29"/><stop offset=".389" stop-color="#FC801D"/><stop offset=".821" stop-color="#FEC519"/><stop offset=".989" stop-color="#FCF84A"/></linearGradient><linearGradient id="paint15_linear" x1="4.853" x2="10.226" y1="13.681" y2="4.516" gradientUnits="userSpaceOnUse"><stop offset=".042" stop-color="#7D11EF"/><stop offset=".116" stop-color="#A019CB"/><stop offset=".202" stop-color="#C220A8"/><stop offset=".283" stop-color="#DA268F"/><stop offset=".357" stop-color="#E92980"/><stop offset=".417" stop-color="#EE2A7B"/></linearGradient><linearGradient id="paint16_linear" x1="8.108" x2="9.759" y1="8.926" y2="14.015" gradientUnits="userSpaceOnUse"><stop stop-color="#F7941D" stop-opacity="0"/><stop offset=".547" stop-color="#FB851D" stop-opacity=".547"/><stop offset="1" stop-color="#FC801D"/></linearGradient><linearGradient id="paint17_linear" x1="-1.439" x2="2.341" y1="3.553" y2="10.446" gradientUnits="userSpaceOnUse"><stop offset=".192" stop-color="#7D11EF"/><stop offset=".282" stop-color="#A019CB"/><stop offset=".386" stop-color="#C220A8"/><stop offset=".484" stop-color="#DA268F"/><stop offset=".574" stop-color="#E92980"/><stop offset=".647" stop-color="#EE2A7B"/></linearGradient><linearGradient id="paint18_linear" x1="2.661" x2="5.253" y1="1.514" y2="6.241" gradientUnits="userSpaceOnUse"><stop offset=".192" stop-color="#7D11EF"/><stop offset=".282" stop-color="#A019CB"/><stop offset=".386" stop-color="#C220A8"/><stop offset=".484" stop-color="#DA268F"/><stop offset=".574" stop-color="#E92980"/><stop offset=".647" stop-color="#EE2A7B"/><stop offset="1" stop-color="#F26522"/></linearGradient><linearGradient id="paint19_linear" x1="6.132" x2="2.75" y1="-1.072" y2="8.416" gradientUnits="userSpaceOnUse"><stop offset=".192" stop-color="#7D11EF"/><stop offset=".282" stop-color="#A019CB"/><stop offset=".386" stop-color="#C220A8"/><stop offset=".484" stop-color="#DA268F"/><stop offset=".574" stop-color="#E92980"/><stop offset=".647" stop-color="#EE2A7B"/><stop offset="1" stop-color="#F26522"/></linearGradient><linearGradient id="paint20_linear" x1="9.586" x2="2.473" y1="9.172" y2="3.983" gradientUnits="userSpaceOnUse"><stop offset=".042" stop-color="#FFDE17"/><stop offset=".043" stop-color="#FFDD18"/><stop offset=".115" stop-color="#FAA736"/><stop offset=".184" stop-color="#F67A4E"/><stop offset=".251" stop-color="#F25762"/><stop offset=".314" stop-color="#F03E70"/><stop offset=".371" stop-color="#EE2F78"/><stop offset=".417" stop-color="#EE2A7B"/></linearGradient><linearGradient id="paint21_linear" x1="1.913" x2="12.586" y1="3.254" y2="11.576" gradientUnits="userSpaceOnUse"><stop offset=".011" stop-color="#7C0F13"/><stop offset=".076" stop-color="#6C0D11"/><stop offset=".252" stop-color="#45080B"/><stop offset=".426" stop-color="#270506"/><stop offset=".597" stop-color="#110203"/><stop offset=".762" stop-color="#040101"/><stop offset=".914"/></linearGradient></defs></svg>